<?xml version="1.0" standalone="no"?>
<!DOCTYPE svg PUBLIC "-//W3C//DTD SVG 20010904//EN"
 "http://www.w3.org/TR/2001/REC-SVG-20010904/DTD/svg10.dtd">
<svg version="1.0" xmlns="http://www.w3.org/2000/svg"
 width="500.000000pt" height="500.000000pt" viewBox="0 0 500.000000 500.000000"
 preserveAspectRatio="xMidYMid meet">
<metadata>
Created by potrace 1.14, written by Peter Selinger 2001-2017
</metadata>
<g transform="translate(0.000000,500.000000) scale(0.100000,-0.100000)"
fill="#000000" stroke="none">
<path d="M3818 4365 c-2 -2 -16 -6 -33 -8 -196 -35 -542 -251 -886 -553 -79
-69 -108 -90 -113 -79 -3 8 -22 23 -43 32 -21 9 -47 25 -58 33 -11 9 -52 27
-92 39 -57 18 -77 20 -93 11 -12 -6 -43 -14 -68 -16 -27 -3 -76 -19 -113 -39
-37 -19 -74 -35 -82 -35 -9 0 -29 -12 -45 -27 -41 -39 -125 -152 -141 -191
l-13 -32 -72 62 c-39 35 -84 75 -101 91 -46 44 -204 160 -316 233 -357 232
-601 291 -685 167 -62 -92 38 -299 310 -643 28 -36 61 -76 72 -90 68 -80 234
-270 262 -299 17 -20 32 -38 32 -42 0 -4 -12 -17 -27 -28 -14 -12 -24 -24 -21
-26 6 -6 100 -41 166 -61 l43 -13 -5 27 c-15 89 -36 186 -41 191 -4 3 -9 1
-13 -4 -4 -6 -17 -19 -30 -29 l-22 -19 -64 69 c-178 192 -418 492 -510 637
-55 86 -104 194 -112 245 -6 41 -4 48 20 69 95 81 427 -60 791 -336 72 -54
285 -242 285 -250 -1 -16 -35 -103 -65 -166 -31 -64 -115 -308 -115 -335 0 -6
-8 -30 -19 -53 -40 -90 -71 -177 -82 -228 -9 -44 -25 -71 -84 -144 -111 -138
-273 -355 -299 -402 -1 -1 -69 11 -151 27 -580 110 -955 246 -955 346 0 43 78
97 201 140 66 22 271 75 339 88 104 18 151 26 190 31 25 3 52 8 60 10 8 2 44
7 80 10 36 4 67 8 70 10 5 2 129 15 190 19 20 2 25 7 25 30 l1 28 -79 -7 c-93
-7 -132 -12 -267 -30 -409 -56 -723 -146 -818 -236 -154 -145 41 -281 598
-418 152 -37 423 -95 472 -100 3 -1 -34 -66 -83 -146 -146 -237 -281 -512
-304 -620 -29 -131 -26 -189 10 -250 73 -125 283 -117 517 21 81 49 230 158
273 200 15 16 19 14 49 -15 l33 -32 8 28 c4 15 8 35 10 43 2 8 10 44 19 80 8
35 13 66 11 68 -2 2 -43 -8 -92 -23 -48 -14 -97 -29 -107 -32 -17 -5 -16 -8
13 -35 l32 -30 -91 -72 c-367 -293 -683 -315 -645 -45 23 165 149 429 367 771
41 64 53 76 71 72 79 -16 247 -41 294 -43 17 -1 30 -17 58 -73 19 -39 35 -77
35 -83 0 -6 14 -40 31 -76 17 -35 35 -89 38 -119 4 -30 11 -62 16 -70 28 -46
141 -183 161 -197 26 -17 235 -72 299 -79 22 -2 58 -6 79 -8 21 -3 62 -1 90 4
28 5 67 12 86 14 56 7 90 26 191 106 116 91 182 167 231 262 41 79 83 200 91
261 3 21 7 40 9 42 2 2 37 7 78 10 41 4 102 10 135 14 70 10 55 23 186 -168
215 -316 339 -565 339 -680 0 -76 -56 -85 -215 -35 -81 26 -330 143 -419 197
-47 29 -49 30 -62 12 -8 -10 -14 -22 -14 -26 0 -7 140 -88 239 -138 77 -39
232 -101 291 -116 288 -75 312 111 70 532 -61 105 -187 299 -257 396 l-35 47
25 0 c13 0 62 6 108 14 46 8 100 17 119 20 32 5 152 27 225 41 17 3 44 8 60
11 17 3 103 23 192 45 420 102 609 211 585 338 -8 39 -83 106 -163 144 -99 47
-329 111 -504 142 -80 14 -155 25 -200 30 -27 3 -57 8 -65 10 -8 2 -47 7 -87
10 -40 4 -85 8 -100 10 -15 2 -73 7 -128 10 -151 10 -156 11 -164 24 -4 6 -6
27 -5 46 2 19 1 35 -1 35 -2 0 -19 -8 -37 -18 -125 -71 -149 -85 -153 -91 -2
-5 8 -14 23 -22 15 -8 55 -31 89 -51 35 -21 66 -38 71 -38 5 0 8 15 8 33 l-1
32 55 -1 c66 0 247 -13 275 -19 11 -3 47 -7 80 -10 33 -3 71 -7 85 -9 24 -5
42 -7 150 -21 25 -3 61 -10 80 -15 19 -5 55 -12 80 -15 25 -4 90 -18 145 -31
249 -62 397 -135 410 -203 6 -33 -53 -92 -132 -130 -122 -60 -424 -148 -633
-185 -19 -3 -44 -8 -55 -10 -102 -20 -235 -43 -294 -52 -25 -4 -55 -8 -66 -10
-106 -20 -109 -19 -145 27 -39 50 -214 262 -247 299 -15 16 -23 38 -24 65 -1
63 -17 278 -24 325 -2 14 -7 48 -10 75 -30 241 -128 586 -210 744 l-15 29 68
60 c207 184 351 291 587 439 53 33 177 92 235 112 84 29 149 36 194 21 46 -15
59 -40 53 -99 -20 -178 -284 -567 -742 -1092 l-23 -27 20 -20 21 -20 61 71
c33 40 63 74 66 77 20 17 212 255 287 355 225 301 334 488 362 626 19 92 1
143 -64 173 -31 15 -128 30 -137 21z m-1027 -762 c13 -16 12 -17 -3 -4 -17 13
-22 21 -14 21 2 0 10 -8 17 -17z m-126 -614 c-4 -5 -2 -9 4 -9 5 0 15 8 20 18
6 9 11 12 11 5 0 -6 8 -10 18 -8 9 1 11 0 4 -2 -10 -4 -10 -8 -2 -18 8 -9 8
-15 0 -20 -6 -3 -8 -11 -5 -16 4 -5 1 -9 -5 -9 -6 0 -9 10 -8 23 2 12 -1 23
-7 24 -5 0 -9 -3 -7 -9 1 -5 -2 -7 -8 -3 -5 3 -10 1 -10 -4 0 -6 5 -11 10 -11
6 0 10 -7 10 -15 0 -8 -6 -15 -12 -15 -8 0 -9 -3 -3 -8 6 -4 17 -16 24 -27 8
-11 -8 2 -37 29 -28 27 -49 53 -46 58 3 4 -1 8 -8 8 -7 1 1 7 17 14 31 14 50
11 40 -5z m92 -41 c-5 -16 -3 -17 9 -7 12 10 13 9 8 -5 -3 -9 -10 -16 -15 -16
-5 0 -4 -9 3 -20 17 -27 27 -25 21 3 -4 13 -2 19 3 14 5 -5 9 -12 9 -15 0 -4
4 -12 8 -18 4 -7 0 -15 -10 -18 -11 -5 -14 -10 -6 -14 7 -5 7 -15 1 -32 -9
-24 -10 -24 -20 -6 -9 15 -8 21 2 24 10 4 9 6 -1 13 -11 7 -11 9 -1 9 7 0 10
5 6 11 -5 8 -13 4 -24 -11 -13 -17 -19 -20 -25 -10 -5 9 -4 11 3 6 7 -4 12 -2
12 3 0 6 -3 11 -8 11 -10 0 -35 41 -28 47 3 3 13 0 22 -8 16 -13 17 -11 12 14
-3 15 -1 27 3 27 5 0 5 7 2 17 -5 11 -3 14 6 9 7 -5 10 -17 8 -28z m-173 -50
c-3 -4 -1 -8 3 -8 5 0 18 -7 29 -16 18 -14 18 -15 -4 -4 -13 7 -26 9 -29 7 -6
-7 59 -42 70 -39 5 1 7 -1 4 -5 -2 -5 -7 -17 -11 -28 -6 -16 -9 -17 -16 -5 -6
9 -5 18 3 23 7 5 3 6 -10 2 -18 -5 -22 -3 -17 9 3 9 1 16 -5 16 -6 0 -10 -3
-9 -7 4 -19 -15 -60 -28 -60 -9 0 -10 4 -4 12 5 6 7 20 6 30 -2 11 -1 25 3 30
9 17 10 35 0 35 -5 0 -9 4 -9 8 0 5 7 9 15 9 8 0 12 -4 9 -9z m256 -8 c0 -5
-5 -10 -11 -10 -5 0 -7 5 -4 10 3 6 8 10 11 10 2 0 4 -4 4 -10z m-164 -93 c-5
-32 -33 -42 -64 -23 -19 12 -14 -4 11 -30 27 -29 42 -31 27 -5 -9 17 -7 19 12
15 13 -3 29 -6 36 -6 6 -1 12 -6 12 -11 0 -5 -10 -7 -23 -5 -15 3 -24 0 -24
-9 0 -7 5 -13 11 -13 6 0 4 -4 -4 -9 -21 -12 -75 -7 -76 7 -3 25 -5 27 -13 14
-6 -11 -9 -9 -13 6 -4 13 -2 19 6 16 6 -2 13 5 14 16 4 43 6 50 13 50 4 0 11
-9 14 -21 5 -16 10 -18 20 -9 8 7 18 9 24 6 5 -4 7 3 3 16 -3 13 -1 19 6 15 5
-4 9 -13 8 -20z m24 -28 c0 -11 -4 -18 -10 -14 -5 3 -7 12 -3 20 7 21 13 19
13 -6z m288 -14 c-3 -3 -9 2 -12 12 -6 14 -5 15 5 6 7 -7 10 -15 7 -18z
m-1297 -401 c0 -76 -4 -161 -9 -188 -6 -27 -8 -60 -6 -73 5 -24 4 -24 -53 -18
-32 3 -71 8 -88 11 -16 3 -51 9 -78 13 -26 5 -50 11 -53 14 -9 8 274 391 284
382 1 -1 2 -64 3 -141z m1465 -63 c32 -38 66 -77 74 -88 8 -10 32 -40 54 -66
21 -27 36 -50 33 -53 -7 -7 -39 -12 -134 -19 l-88 -7 -1 151 c0 83 0 151 1
151 1 0 29 -31 61 -69z"/>
<path d="M2630 2979 c0 -5 6 -7 13 -3 9 6 9 4 1 -7 -9 -11 -7 -19 8 -34 19
-20 20 -20 12 10 -4 17 -9 33 -11 38 -6 11 -23 9 -23 -4z"/>
<path d="M2724 2893 c23 -27 22 -27 30 -7 4 11 2 15 -8 11 -7 -3 -20 0 -27 6
-7 7 -5 2 5 -10z"/>
<path d="M2579 2858 c-5 -18 -6 -38 -1 -34 7 8 12 36 6 36 -2 0 -4 -1 -5 -2z"/>
<path d="M2595 2744 c2 -11 4 -21 5 -24 1 -3 2 -7 2 -10 0 -3 13 -6 29 -6 17
-1 29 -1 27 0 -2 0 -17 14 -35 30 -26 23 -31 25 -28 10z m26 -21 c13 -16 12
-17 -3 -4 -10 7 -18 15 -18 17 0 8 8 3 21 -13z"/>
</g>
</svg>
